#!OML:ASF F:\VICON\USERDATA\INSTALL\rory3\rory3.ASF
:FULLY-SPECIFIED
:DEGREES
711
root 0.340275 15.5337 3.64974 13.9228 -44.5624 12.144
lowerback 5.88729 7.80002 8.16512
upperback 7.30178 10.6201 -3.72078
thorax 6.74637 5.906 -8.2875
lowerneck -3.47129 -5.77128 -10.3847
upperneck 52.2392 -10.6786 5.54808
head 25.0003 -5.53743 3.27043
rclavicle -3.81667e-014 -1.74931e-014
rhumerus -52.686 62.5178 -135.122
rradius 94.571
rwrist -32.4151
rhand 3.11261 -30.3721
rfingers 7.12502
rthumb 28.5682 -58.2093
lclavicle -3.81667e-014 -1.74931e-014
lhumerus -16.575 -76.2562 93.0899
lradius 103.634
lwrist 28.9967
lhand -16.616 -21.3951
lfingers 7.12502
lthumb 9.6059 8.36595
rfemur -67.0793 -3.43519 10.9266
rtibia 87.5415
rfoot -8.23643 -20.2519
rtoes -30.8317
lfemur -57.7126 -19.122 -27.7272
ltibia 60.6317
lfoot -23.3426 -3.54378
ltoes 11.902
712
root 0.341674 15.5326 3.64822 13.9173 -44.459 12.1814
lowerback 5.95745 7.80803 8.20655
upperback 7.30069 10.6367 -3.73274
thorax 6.72117 5.91706 -8.33211
lowerneck -3.40451 -5.81152 -10.3289
upperneck 52.2307 -10.7387 5.51631
head 24.9558 -5.54766 3.2297
rclavicle -7.95139e-014 1.06549e-013
rhumerus -52.9026 62.4659 -135.262
rradius 94.6018
rwrist -32.6244
rhand 3.2046 -30.4893
rfingers 7.12502
rthumb 28.656 -58.3116
lclavicle -7.95139e-014 1.06549e-013
lhumerus -16.3652 -76.2695 92.9368
lradius 103.601
lwrist 29.1552
lhand -16.9555 -22.1201
lfingers 7.12502
lthumb 9.27826 7.65573
rfemur -67.1352 -3.51816 10.94
rtibia 87.5852
rfoot -7.95137 -20.3708
rtoes -31.327
lfemur -57.7583 -19.1511 -27.7582
ltibia 60.6315
lfoot -23.3381 -3.52797
ltoes 11.4737
713
root 0.342228 15.5269 3.64602 13.9273 -44.3625 12.273
lowerback 5.89133 7.79243 8.22218
upperback 7.35396 10.6131 -3.76838
thorax 6.82374 5.91413 -8.36612
lowerneck -3.52561 -5.85166 -10.357
upperneck 52.255 -10.7908 5.52834
head 25.0663 -5.56863 3.23106
rclavicle 9.54166e-015 -2.54444e-014
rhumerus -53.2377 62.4737 -135.5
rradius 94.6784
rwrist -32.5861
rhand 3.62068 -30.4299
rfingers 7.12502
rthumb 29.0535 -58.1845
lclavicle 9.54166e-015 -2.54444e-014
lhumerus -15.914 -76.2535 92.5185
lradius 103.584
lwrist 29.1346
lhand -18.2695 -23.0491
lfingers 7.12502
lthumb 8.01027 6.77915
rfemur -67.0865 -3.53673 10.6429
rtibia 87.7141
rfoot -10.5517 -19.2307
rtoes -26.8996
lfemur -57.878 -19.238 -27.7734
ltibia 60.6336
lfoot -23.2672 -3.7548
ltoes 11.7817
714
root 0.341907 15.5282 3.64923 13.8959 -44.3269 12.3814
lowerback 5.76488 7.75196 8.24961
upperback 7.43494 10.5529 -3.81298
thorax 6.9875 5.89728 -8.40785
lowerneck -3.63428 -5.84359 -10.5521
upperneck 52.2353 -10.8127 5.72542
head 25.1847 -5.60226 3.3827
rclavicle 8.11041e-014 -5.56597e-014
rhumerus -53.5282 62.5855 -135.748
rradius 94.7315
rwrist -32.6096
rhand 4.40547 -30.2253
rfingers 7.12502
rthumb 29.8027 -57.8481
lclavicle 8.11041e-014 -5.56597e-014
lhumerus -15.483 -76.1895 92.0624
lradius 103.578
lwrist 29.1246
lhand -17.3976 -22.575
lfingers 7.12502
lthumb 8.85167 7.21939
rfemur -67.2775 -3.68432 10.7974
rtibia 87.6764
rfoot -8.24159 -20.0905
rtoes -31.322
lfemur -57.897 -19.3175 -27.8286
ltibia 60.5993
lfoot -23.2246 -3.86002
ltoes 12.0892
715
root 0.341883 15.5296 3.65342 13.8615 -44.2728 12.4591
lowerback 5.67812 7.72722 8.33776
upperback 7.51153 10.5186 -3.87611
thorax 7.14757 5.89866 -8.50701
lowerneck -3.76079 -5.87052 -10.6056
upperneck 52.2461 -10.8774 5.81765
head 25.3114 -5.6295 3.43481
rclavicle -5.56597e-014 3.97569e-014
rhumerus -53.2778 62.6871 -135.6
rradius 94.6996
rwrist -32.6813
rhand 5.46978 -30.3369
rfingers 7.12502
rthumb 30.818 -57.7729
lclavicle -5.56597e-014 3.97569e-014
lhumerus -14.936 -76.2383 91.4688
lradius 103.568
lwrist 29.0129
lhand -16.96 -22.7025
lfingers 7.12502
lthumb 9.27398 7.07349
rfemur -67.2882 -3.74186 10.7176
rtibia 87.7338
rfoot -8.41049 -20.1468
rtoes -31.0717
lfemur -57.8818 -19.4433 -27.8545
ltibia 60.5678
lfoot -23.2665 -3.7798
ltoes 11.9685
716
root 0.341494 15.529 3.65713 13.9458 -44.2501 12.4578
lowerback 5.55186 7.75477 8.40917
upperback 7.54681 10.5524 -3.92931
thorax 7.29402 5.9303 -8.57841
lowerneck -3.84456 -5.93453 -10.4917
upperneck 52.2747 -10.9787 5.76376
head 25.3815 -5.64448 3.35747
rclavicle 1.43125e-014 2.06736e-014
rhumerus -52.7427 62.7343 -135.245
rradius 94.6334
rwrist -32.6566
rhand 6.42795 -30.5267
rfingers 7.12502
rthumb 31.731 -57.7862
lclavicle 1.43125e-014 2.06736e-014
lhumerus -14.4659 -76.3077 90.9752
lradius 103.528
lwrist 28.6447
lhand -16.7866 -22.9065
lfingers 7.12502
lthumb 9.44122 6.86207
rfemur -67.3162 -3.71868 10.5828
rtibia 87.7895
rfoot -9.53669 -19.7954
rtoes -29.008
lfemur -57.9449 -19.4527 -27.8596
ltibia 60.5502
lfoot -23.2893 -3.77275
ltoes 11.7359
717
root 0.339941 15.5288 3.65976 14.1465 -44.193 12.3091
lowerback 5.31113 7.7803 8.58492
upperback 7.62222 10.5753 -3.934
thorax 7.56002 5.96641 -8.63438
lowerneck -3.86416 -5.99639 -10.3467
upperneck 52.1832 -11.0502 5.67682
head 25.2415 -5.63951 3.2525
rclavicle -1.43125e-013 3.49861e-014
rhumerus -52.202 62.8604 -134.851
rradius 94.6065
rwrist -32.7753
rhand 7.02712 -30.6909
rfingers 7.12502
rthumb 32.3015 -57.8359
lclavicle -1.43125e-013 3.49861e-014
lhumerus -13.5788 -76.3517 90.0935
lradius 103.482
lwrist 28.368
lhand -16.9542 -22.9763
lfingers 7.12502
lthumb 9.27951 6.79944
rfemur -67.2644 -3.67004 10.5342
rtibia 87.8125
rfoot -11.0438 -19.1152
rtoes -26.0849
lfemur -58.0441 -19.4351 -27.7624
ltibia 60.5551
lfoot -23.2647 -3.72804
ltoes 11.2486
718
root 0.340887 15.533 3.66329 14.2123 -43.8894 12.2797
lowerback 5.1285 7.708 8.77373
upperback 7.71414 10.4687 -3.91822
thorax 7.77954 5.93727 -8.69503
lowerneck -3.8731 -6.03156 -10.2258
upperneck 52.0864 -11.0702 5.58921
head 25.0828 -5.62122 3.16387
rclavicle -5.08889e-014 7.79236e-014
rhumerus -51.8473 62.9701 -134.559
rradius 94.5654
rwrist -32.8526
rhand 7.5239 -30.5344
rfingers 7.12502
rthumb 32.7742 -57.5819
lclavicle -5.08889e-014 7.79236e-014
lhumerus -12.899 -76.4467 89.4728
lradius 103.369
lwrist 28.2019
lhand -17.3713 -23.7112
lfingers 7.12502
lthumb 8.87704 6.08211
rfemur -67.3116 -4.01614 10.8556
rtibia 87.7104
rfoot -8.60638 -20.2306
rtoes -30.6278
lfemur -58.0535 -19.7338 -27.6665
ltibia 60.508
lfoot -23.2048 -3.66585
ltoes 11.075
719
root 0.34474 15.5326 3.66696 14.1192 -43.3707 12.4742
lowerback 5.04643 7.5514 8.83165
upperback 7.69871 10.2556 -3.89007
thorax 7.76359 5.83261 -8.70527
lowerneck -3.64711 -6.01298 -10.1901
upperneck 52.0519 -11.0345 5.54403
head 24.9053 -5.60505 3.14159
rclavicle 3.81667e-014 -4.29375e-014
rhumerus -52.0378 62.8927 -134.704
rradius 94.5095
rwrist -32.5784
rhand 7.84256 -29.9529
rfingers 7.12502
rthumb 33.0773 -56.9367
lclavicle 3.81667e-014 -4.29375e-014
lhumerus -13.6097 -76.4998 90.2822
lradius 103.153
lwrist 28.2244
lhand -17.4325 -25.1256
lfingers 7.12502
lthumb 8.81803 4.67017
rfemur -67.2106 -4.57164 10.827
rtibia 87.729
rfoot -8.49561 -20.3006
rtoes -30.9326
lfemur -58.0533 -20.2388 -27.6851
ltibia 60.4249
lfoot -23.0778 -3.85601
ltoes 11.7521
720
root 0.349115 15.5303 3.67403 13.9327 -42.8483 12.8479
lowerback 4.90546 7.38303 8.78583
upperback 7.6982 10.0236 -3.90355
thorax 7.7805 5.71567 -8.69675
lowerneck -3.52052 -6.01678 -10.2047
upperneck 52.0306 -11.0385 5.53669
head 24.8218 -5.61033 3.14196
rclavicle -1.20861e-013 3.65764e-014
rhumerus -52.1751 62.8623 -134.83
rradius 94.4663
rwrist -32.1091
rhand 8.23582 -29.5501
rfingers 7.12502
rthumb 33.4512 -56.4541
lclavicle -1.20861e-013 3.65764e-014
lhumerus -14.01 -76.4005 90.7569
lradius 102.904
lwrist 28.3921
lhand -16.328 -26.57
lfingers 7.12502
lthumb 9.88369 3.17796
rfemur -67.1358 -5.22614 10.6175
rtibia 87.7891
rfoot -8.88472 -20.1557
rtoes -30.4833
lfemur -58.0384 -20.7713 -27.8631
ltibia 60.3071
lfoot -22.9621 -4.02555
ltoes 12.2643
